<?xml version="1.0" standalone="no"?><!DOCTYPE svg PUBLIC "-//W3C//DTD SVG 1.1//EN" "http://www.w3.org/Graphics/SVG/1.1/DTD/svg11.dtd"><svg class="icon" width="200px" height="200.00px" viewBox="0 0 1024 1024" version="1.1" xmlns="http://www.w3.org/2000/svg"><path fill="#1296db" d="M780.8 794.112H247.808c-19.456 0-32.256 11.264-32.256 28.16s12.8 28.16 32.256 28.16h532.992c19.456 0 32.256-11.264 32.256-28.16s-12.288-28.16-32.256-28.16z"  /><path fill="#1296db" d="M904.704 168.448c-19.456 0-32.256 11.264-32.256 28.16V844.8c0 28.16-32.256 55.808-65.024 55.808H235.52c-38.912 0-84.48-28.16-84.48-55.808v-61.44c0-28.16 38.912-44.544 77.824-44.544h545.792c19.456 0 32.256-11.264 32.256-28.16v-547.84c0-61.44-52.224-100.864-130.048-100.864H235.52c-71.68 0-142.848 33.792-142.848 100.864v704.512c6.656 50.176 65.024 89.6 123.392 95.232h591.36c71.68 0 130.048-50.176 130.048-105.984v-660.48c-0.512-11.264-13.312-27.648-32.768-27.648z m-317.44 229.888L378.88 527.36V266.24l208.384 132.096z"  /></svg>