<?xml version="1.0" standalone="no"?><!DOCTYPE svg PUBLIC "-//W3C//DTD SVG 1.1//EN" "http://www.w3.org/Graphics/SVG/1.1/DTD/svg11.dtd"><svg class="icon" width="200px" height="200.00px" viewBox="0 0 1024 1024" version="1.1" xmlns="http://www.w3.org/2000/svg"><path fill="#1296db" d="M518.826667 40.96C263.964444 40.96 54.613333 250.311111 54.613333 505.173333s209.351111 464.213333 464.213334 464.213334 464.213333-209.351111 464.213333-464.213334S773.688889 40.96 518.826667 40.96z m0 892.017778C282.168889 932.977778 91.022222 741.831111 91.022222 505.173333S282.168889 77.368889 518.826667 77.368889s427.804444 191.146667 427.804444 427.804444S755.484444 932.977778 518.826667 932.977778zM757.76 348.16h-102.4v-104.675556c0-9.102222-6.826667-15.928889-15.928889-15.928888H300.373333c-9.102222 0-15.928889 6.826667-15.928889 15.928888V682.666667c0 9.102222 6.826667 15.928889 15.928889 15.928889h102.4v104.675555c0 9.102222 6.826667 15.928889 15.928889 15.928889h339.057778c9.102222 0 15.928889-6.826667 15.928889-15.928889V364.088889c-2.275556-9.102222-9.102222-15.928889-15.928889-15.928889z m-354.986667 15.928889v34.133333h-27.306666c-6.826667 0-11.377778 4.551111-11.377778 11.377778v2.275556c0 6.826667 4.551111 11.377778 11.377778 11.377777h27.306666v72.817778h-29.582222c-6.826667 0-11.377778 4.551111-11.377778 11.377778v2.275555c0 6.826667 4.551111 11.377778 11.377778 11.377778h29.582222v68.266667h-27.306666c-6.826667 0-11.377778 4.551111-11.377778 11.377778v2.275555c0 6.826667 4.551111 11.377778 11.377778 11.377778h27.306666v70.542222H295.822222V238.933333h343.608889v109.226667h-223.004444c-6.826667 0-13.653333 6.826667-13.653334 15.928889z m354.986667 441.457778H414.151111V359.537778h343.608889v446.008889zM493.795556 450.56h186.595555c6.826667 0 11.377778-4.551111 11.377778-11.377778v-2.275555c0-6.826667-4.551111-11.377778-11.377778-11.377778h-186.595555c-6.826667 0-11.377778 4.551111-11.377778 11.377778v2.275555c0 4.551111 4.551111 11.377778 11.377778 11.377778zM493.795556 543.857778h186.595555c6.826667 0 11.377778-4.551111 11.377778-11.377778v-2.275556c0-6.826667-4.551111-11.377778-11.377778-11.377777h-186.595555c-6.826667 0-11.377778 4.551111-11.377778 11.377777v2.275556c0 4.551111 4.551111 11.377778 11.377778 11.377778zM493.795556 641.706667h186.595555c6.826667 0 11.377778-4.551111 11.377778-11.377778v-2.275556c0-6.826667-4.551111-11.377778-11.377778-11.377777h-186.595555c-6.826667 0-11.377778 4.551111-11.377778 11.377777v2.275556c-2.275556 4.551111 4.551111 11.377778 11.377778 11.377778zM680.391111 709.973333h-186.595555c-6.826667 0-11.377778 4.551111-11.377778 11.377778v2.275556c0 6.826667 4.551111 11.377778 11.377778 11.377777h186.595555c6.826667 0 11.377778-4.551111 11.377778-11.377777v-2.275556c0-4.551111-4.551111-11.377778-11.377778-11.377778zM573.44 318.577778c0-9.102222-4.551111-13.653333-11.377778-13.653334h-186.595555c-6.826667 0-11.377778 4.551111-11.377778 11.377778v2.275556c0 6.826667 4.551111 11.377778 11.377778 11.377778h186.595555c6.826667 0 11.377778-4.551111 11.377778-11.377778z" /></svg>